# xmcd CD database file
#
# Track frame offsets:
#	150
#	11232
#	25524
#	41820
#	55972
#	67726
#	86804
#	103808
#	120601
#	133052
#	147516
#	160864
#	175578
#	186678
#	201467
#	219273
#	230376
#	241707
#
# Disc length: 3444 seconds
#
# Revision: 0
# Processed by: cddbd v1.5.2PL0 Copyright (c) Steve Scherf et al.
# Submitted via: CDex 1.51
#
DISCID=020d7212
DTITLE=Anita O'Day - Keep The Coffee Coming
DYEAR=1900
DGENRE=Jazz
TTITLE0=Lover Come Back To Me
TTITLE1=Lullaby Of The Leaves
TTITLE2=Love For Sale
TTITLE3=Strawberry Moon
TTITLE4=Speak Low
TTITLE5=The Man I Love
TTITLE6=I Cover The Waterfront
TTITLE7=I Didn't Know What Time It Was
TTITLE8=You're Getting T Be A Habit With Me
TTITLE9=From This Moment On
TTITLE10=You Don't Know What Love Is
TTITLE11=Medley: There Will Never Be Another You/Just Friends
TTITLE12=You're The Top
TTITLE13=Who Cares
TTITLE14=I Can't Get Started
TTITLE15=Fine And Dandy
TTITLE16=No Moon At All
TTITLE17=As Long As I Live
EXTD=
EXTT0=
EXTT1=
EXTT2=
EXTT3=
EXTT4=
EXTT5=
EXTT6=
EXTT7=
EXTT8=
EXTT9=
EXTT10=
EXTT11=
EXTT12=
EXTT13=
EXTT14=
EXTT15=
EXTT16=
EXTT17=
PLAYORDER=
